<svg width="24" height="24" viewBox="0 0 24 24" fill="none" xmlns="http://www.w3.org/2000/svg">
<path d="M9.91686 4.92433C10.5873 4.4815 11.2424 4.20123 12 4.20123C12.7576 4.20123 13.4126 4.4815 14.0831 4.92433C14.727 5.34962 15.4555 5.97402 16.3549 6.74502L17.5132 7.73776C18.4272 8.52036 19.0627 9.06447 19.4069 9.81284C19.7511 10.5612 19.7507 11.3978 19.75 12.6011L19.75 17.052C19.75 17.9505 19.75 18.6997 19.6701 19.2945C19.5857 19.9223 19.4 20.4891 18.9445 20.9445C18.4891 21.4 17.9223 21.5857 17.2945 21.6701C16.7439 21.7441 16.0611 21.7496 15.25 21.75V18C15.25 16.4812 14.0188 15.25 12.5 15.25H11.5C9.9812 15.25 8.74998 16.4812 8.74998 18V21.75C7.93891 21.7496 7.25605 21.7441 6.70551 21.6701C6.07771 21.5857 5.51091 21.4 5.05544 20.9445C4.59997 20.4891 4.4143 19.9223 4.3299 19.2945C4.24993 18.6997 4.24996 17.9505 4.24998 17.052L4.24993 12.6011C4.2493 11.3978 4.24886 10.5612 4.59306 9.81284C4.93726 9.06448 5.57274 8.52036 6.48674 7.73776L7.64501 6.74502C8.54448 5.97403 9.27293 5.34962 9.91686 4.92433Z" fill="black"/>
<path d="M10.25 21.75H13.75V18C13.75 17.3096 13.1903 16.75 12.5 16.75H11.5C10.8096 16.75 10.25 17.3096 10.25 18V21.75Z" fill="black"/>
</svg>
